<svg width="22" height="22" viewBox="0 0 22 22" xmlns="http://www.w3.org/2000/svg"><title>Fill 10</title><path d="M16.358 13.693l5.514 5.513a.492.492 0 0 1 0 .662l-2.004 2.003a.49.49 0 0 1-.662 0l-5.513-5.513a8.572 8.572 0 0 1-4.797 1.433c-2.452 0-4.547-.87-6.286-2.61C.87 13.441 0 11.346 0 8.896 0 6.445.87 4.35 2.61 2.61 4.35.87 6.444 0 8.896 0c2.45 0 4.545.87 6.286 2.61 1.74 1.74 2.61 3.835 2.61 6.286 0 1.74-.478 3.338-1.434 4.797 0 0 .956-1.459 0 0zM4.761 4.763C3.587 5.94 3 7.353 3 9c0 1.648.587 3.06 1.761 4.236C5.935 14.412 7.351 15 9.009 15c1.658 0 3.071-.584 4.24-1.755C14.415 12.075 15 10.661 15 9c0-1.66-.584-3.076-1.752-4.245C12.08 3.585 10.668 3 9.01 3c-1.658 0-3.074.588-4.248 1.764z" fill="#146577" fill-rule="evenodd"/></svg>