<svg width="15" height="15" viewBox="0 0 15 15" xmlns="http://www.w3.org/2000/svg"><title>Fill 10</title><path d="M11.153 9.336l3.76 3.76a.335.335 0 0 1 0 .45l-1.367 1.366a.334.334 0 0 1-.45 0l-3.76-3.76a5.845 5.845 0 0 1-3.27.978c-1.672 0-3.1-.593-4.286-1.78C.593 9.166 0 7.737 0 6.066c0-1.67.593-3.1 1.78-4.286C2.965.593 4.394 0 6.065 0c1.671 0 3.1.593 4.286 1.78 1.186 1.186 1.78 2.614 1.78 4.285a5.845 5.845 0 0 1-.978 3.27s.652-.993 0 0zM3.246 3.248c-.8.802-1.2 1.764-1.2 2.888 0 1.124.4 2.087 1.2 2.889.8.801 1.766 1.202 2.897 1.202 1.13 0 2.093-.398 2.89-1.196.796-.798 1.194-1.762 1.194-2.895 0-1.132-.398-2.097-1.194-2.894-.797-.798-1.76-1.197-2.89-1.197-1.131 0-2.096.401-2.897 1.203z" fill="#146577" fill-rule="evenodd"/></svg>