<svg width="25" height="25" viewBox="0 0 25 25" xmlns="http://www.w3.org/2000/svg"><title>Desktop - Header</title><g fill="#146577" fill-rule="evenodd"><path d="M19.39 10.774s.005.042.006.064l1.318-.064h2.38V1.457l-3.27 3.398C17.885 2.491 14.85 1 11.636 1 5.813 1 1 5.934 1 12s4.698 11 10.521 11c4.056 0 7.784-2.467 9.525-6.285l-2.394-1.18c-1.307 2.865-4.123 4.716-7.165 4.716-4.367 0-7.922-3.702-7.922-8.25 0-4.549 3.552-8.25 7.92-8.25 2.531 0 4.782.853 6.233 2.784l-4.034 4.238h5.705z"/><path d="M11.77 14.48H9.304L8.864 16H7.038l2.524-7.82h1.95l2.53 7.82h-1.827l-.445-1.52zm-2.063-1.397h1.66l-.817-2.798h-.032l-.811 2.798z"/></g></svg>