<?xml version="1.0" encoding="UTF-8" standalone="no"?>
<svg width="25px" height="28px" viewBox="0 0 25 28" version="1.1" xmlns="http://www.w3.org/2000/svg" xmlns:xlink="http://www.w3.org/1999/xlink">
    <!-- Generator: Sketch 40.2 (33826) - http://www.bohemiancoding.com/sketch -->
    <title>Shape</title>
    <desc>Created with Sketch.</desc>
    <defs></defs>
    <g id="govCMS-Theme" stroke="none" stroke-width="1" fill="none" fill-rule="evenodd">
        <g id="DESKTOP-06-A-ELEMENTS-v1" transform="translate(-607.000000, -2154.000000)" fill="#224A61">
            <g id="Date" transform="translate(240.000000, 2071.000000)">
                <path d="M380,99 L380,106 L387,106 L387,99 L380,99 Z M372,103 L372,106 L375,106 L375,103 L372,103 Z M376,103 L376,106 L379,106 L379,103 L376,103 Z M372,99 L372,102 L375,102 L375,99 L372,99 Z M376,99 L376,102 L379,102 L379,99 L376,99 Z M372,95 L372,98 L375,98 L375,95 L372,95 Z M376,95 L376,98 L379,98 L379,95 L376,95 Z M380,95 L380,98 L383,98 L383,95 L380,95 Z M384,95 L384,98 L387,98 L387,95 L384,95 Z M385.269231,83 L385.269231,85.8965517 L373.730769,85.8965517 L373.730769,83 L370.846154,83 L370.846154,85.8965517 L369.884615,85.8965517 C368.25,85.8 367,87.06 367,88.7931034 L367,108.103448 C367,109.74 368.25,111 369.884615,111 L389.115385,111 C390.75,111 392,109.74 392,108.103448 L392,88.7931034 C392,87.06 390.75,85.8 389.115385,85.8965517 L388.153846,85.8965517 L388.153846,83 L385.269231,83 L385.269231,83 Z M389,108 L370,108 L370,93 L389,93 L389,108 L389,108 Z" id="Shape"></path>
            </g>
        </g>
    </g>
</svg>