<?xml version="1.0" encoding="UTF-8" standalone="no"?>
<svg width="22px" height="22px" viewBox="0 0 22 22" version="1.1" xmlns="http://www.w3.org/2000/svg" xmlns:xlink="http://www.w3.org/1999/xlink">
    <!-- Generator: Sketch 40.1 (33804) - http://www.bohemiancoding.com/sketch -->
    <title>Fill 10</title>
    <desc>Created with Sketch.</desc>
    <defs></defs>
    <g id="Symbols" stroke="none" stroke-width="1" fill="none" fill-rule="evenodd">
        <g id="Desktop---Header" transform="translate(-1375.000000, -62.000000)" fill="#146577">
            <g id="Search" transform="translate(1040.000000, 48.000000)">
                <path d="M351.358173,27.6925647 L356.871958,33.2063492 C356.957115,33.304372 357,33.4146477 357,33.5371763 C357,33.6597048 356.957115,33.7699805 356.871958,33.8680033 L354.868003,35.871345 C354.769368,35.957115 354.659705,36 354.537176,36 C354.414648,36 354.304372,35.957115 354.206349,35.871345 L348.692565,30.3575606 C347.234475,31.3132832 345.635478,31.7911445 343.895572,31.7911445 C341.444389,31.7911445 339.349151,30.9211919 337.610471,29.1812865 C335.869953,27.4413812 335,25.3461431 335,22.8955723 C335,20.4450014 335.869953,18.3497633 337.610471,16.609858 C339.349151,14.8699527 341.444389,14 343.895572,14 C346.346143,14 348.441381,14.8699527 350.181899,16.609858 C351.921192,18.3497633 352.791757,20.4450014 352.791757,22.8955723 C352.791757,24.6354776 352.313896,26.2344751 351.358173,27.6925647 C351.358173,27.6925647 352.313896,26.2344751 351.358173,27.6925647 L351.358173,27.6925647 L351.358173,27.6925647 Z M339.760968,18.7636364 C338.586989,19.9393939 338,21.3515152 338,23 C338,24.6484848 338.586989,26.0606061 339.760968,27.2363636 C340.934947,28.4121212 342.350983,29 344.009077,29 C345.667171,29 347.080182,28.4157576 348.248109,27.2454545 C349.416036,26.0757576 350,24.6606061 350,23 C350,21.3393939 349.416036,19.9242424 348.248109,18.7545455 C347.080182,17.5848485 345.667171,17 344.009077,17 C342.350983,17 340.934947,17.5878788 339.760968,18.7636364 L339.760968,18.7636364 Z" id="Fill-10"></path>
            </g>
        </g>
    </g>
</svg>