<?xml version="1.0" encoding="UTF-8" standalone="no"?>
<svg width="15px" height="15px" viewBox="0 0 15 15" version="1.1" xmlns="http://www.w3.org/2000/svg" xmlns:xlink="http://www.w3.org/1999/xlink">
    <!-- Generator: Sketch 40.1 (33804) - http://www.bohemiancoding.com/sketch -->
    <title>Fill 10</title>
    <desc>Created with Sketch.</desc>
    <defs></defs>
    <g id="Symbols" stroke="none" stroke-width="1" fill="none" fill-rule="evenodd">
        <g id="Mobile---Header" transform="translate(-247.000000, -37.000000)" fill="#5BCBE3">
            <path d="M258.1533,46.3358396 L261.912698,50.0952381 C261.97076,50.1620718 262,50.2372598 262,50.320802 C262,50.4043442 261.97076,50.4795322 261.912698,50.5463659 L260.546366,51.9122807 C260.479114,51.9707602 260.404344,52 260.320802,52 C260.23726,52 260.162072,51.9707602 260.095238,51.9122807 L256.33584,48.1528822 C255.341688,48.8045113 254.251462,49.1303258 253.065163,49.1303258 C251.393901,49.1303258 249.96533,48.5371763 248.779866,47.3508772 C247.59315,46.1645781 247,44.7360067 247,43.0651629 C247,41.3943191 247.59315,39.9657477 248.779866,38.7794486 C249.96533,37.5931495 251.393901,37 253.065163,37 C254.736007,37 256.164578,37.5931495 257.351295,38.7794486 C258.537176,39.9657477 259.130744,41.3943191 259.130744,43.0651629 C259.130744,44.251462 258.804929,45.3416876 258.1533,46.3358396 C258.1533,46.3358396 258.804929,45.3416876 258.1533,46.3358396 L258.1533,46.3358396 L258.1533,46.3358396 Z M250.246115,40.2479339 C249.445675,41.0495868 249.045455,42.0123967 249.045455,43.1363636 C249.045455,44.2603306 249.445675,45.2231405 250.246115,46.0247934 C251.046555,46.8264463 252.012034,47.2272727 253.142553,47.2272727 C254.273071,47.2272727 255.236487,46.8289256 256.032802,46.0309917 C256.829116,45.2334711 257.227273,44.268595 257.227273,43.1363636 C257.227273,42.0041322 256.829116,41.0392562 256.032802,40.2417355 C255.236487,39.4442149 254.273071,39.0454545 253.142553,39.0454545 C252.012034,39.0454545 251.046555,39.446281 250.246115,40.2479339 L250.246115,40.2479339 Z" id="Fill-10"></path>
        </g>
    </g>
</svg>