<?xml version="1.0" encoding="UTF-8" standalone="no"?>
<svg width="11px" height="7px" viewBox="0 0 11 7" version="1.1" xmlns="http://www.w3.org/2000/svg" xmlns:xlink="http://www.w3.org/1999/xlink">
    <!-- Generator: Sketch 40.1 (33804) - http://www.bohemiancoding.com/sketch -->
    <title>Combined Shape Copy 2</title>
    <desc>Created with Sketch.</desc>
    <defs></defs>
    <g id="Symbols" stroke="none" stroke-width="1" fill="none" fill-rule="evenodd">
        <g id="Desktop---Main-Menu" transform="translate(-874.000000, -36.000000)" fill="#5BCBE3">
            <g id="Capitalize" transform="translate(276.000000, 22.000000)">
                <path d="M603.122956,17.7059587 L599.706643,14.2896451 C599.321981,13.9049834 598.685054,13.9012208 598.294529,14.2917451 C597.901282,14.6849921 597.903065,15.3144942 598.292429,15.7038586 L602.017947,19.4293765 C602.054409,19.6189907 602.14647,19.8005402 602.294529,19.9485993 C602.520404,20.1744741 602.828709,20.2684468 603.122956,20.2331078 C603.417204,20.2684468 603.725509,20.1744741 603.951384,19.9485993 C604.099443,19.8005402 604.191504,19.6189907 604.227966,19.4293765 L607.953484,15.7038586 C608.342848,15.3144942 608.344631,14.6849921 607.951384,14.2917451 C607.560859,13.9012208 606.923932,13.9049834 606.53927,14.2896451 L603.122956,17.7059587 Z" id="Combined-Shape-Copy-2"></path>
            </g>
        </g>
    </g>
</svg>