<?xml version="1.0" encoding="UTF-8" standalone="no"?>
<svg width="25px" height="25px" viewBox="0 0 25 25" version="1.1" xmlns="http://www.w3.org/2000/svg" xmlns:xlink="http://www.w3.org/1999/xlink">
    <!-- Generator: Sketch 40.1 (33804) - http://www.bohemiancoding.com/sketch -->
    <title>Desktop - Header</title>
    <desc>Created with Sketch.</desc>
    <defs></defs>
    <g id="Symbols" stroke="none" stroke-width="1" fill="none" fill-rule="evenodd">
        <g id="Desktop---Header" transform="translate(-981.000000, -80.000000)">
            <g id="Accessiblity" transform="translate(922.000000, 81.000000)" fill="#5BCBE3">
                <g id="Group-2" transform="translate(60.000000, 0.000000)">
                    <path d="M18.38936,9.7735 C18.38936,9.7735 18.39464,9.81566667 18.39552,9.83766667 L19.71376,9.7735 L22.09328,9.7735 L22.09328,0.458333333 L18.82408,3.85641667 C16.88544,1.49141667 13.84944,0 10.63568,0 C4.81272,0 0,4.93441667 0,11 C0,17.0655833 4.69832,22 10.52128,22 C14.5772,22 18.30488,19.53325 20.04552,15.7153333 L17.65192,14.5355833 C16.34512,17.4001667 13.52912,19.2509167 10.48696,19.2509167 C6.11952,19.2509167 2.5652,15.5494167 2.5652,11.0009167 C2.5652,6.45241667 6.11688,2.75091667 10.48432,2.75091667 C13.01608,2.75091667 15.26712,3.60433333 16.71824,5.53483333 L12.68432,9.7735 L18.38936,9.7735 L18.38936,9.7735 Z" id="refresh"></path>
                    <path d="M10.7695312,13.4799805 L8.30419922,13.4799805 L7.86376953,15 L6.03759766,15 L8.56201172,7.1796875 L10.5117188,7.1796875 L13.0415039,15 L11.215332,15 L10.7695312,13.4799805 Z M8.70703125,12.0834961 L10.3666992,12.0834961 L9.55029297,9.28515625 L9.51806641,9.28515625 L8.70703125,12.0834961 Z" id="A"></path>
                </g>
            </g>
        </g>
    </g>
</svg>